<svg width="24" height="24" viewBox="0 0 24 24" fill="none" xmlns="http://www.w3.org/2000/svg">
<path d="M16.177 18.456C16.477 18.6 16.85 18.973 17.031 19.274C17.091 19.694 17.391 18.071 18.859 17.109M21.5 18.001C21.5 19.0618 21.0786 20.0793 20.3284 20.8294C19.5783 21.5795 18.5609 22.001 17.5 22.001C16.4391 22.001 15.4217 21.5795 14.6716 20.8294C13.9214 20.0793 13.5 19.0618 13.5 18.001C13.5 16.9401 13.9214 15.9227 14.6716 15.1725C15.4217 14.4224 16.4391 14.001 17.5 14.001C18.5609 14.001 19.5783 14.4224 20.3284 15.1725C21.0786 15.9227 21.5 16.9401 21.5 18.001Z" stroke="#16A34A" stroke-width="1.5" stroke-linecap="round"/>
<path d="M11.0078 14.001C12.1124 14.001 13.0078 13.1055 13.0078 12.001C13.0078 10.8964 12.1124 10.001 11.0078 10.001C9.90324 10.001 9.00781 10.8964 9.00781 12.001C9.00781 13.1055 9.90324 14.001 11.0078 14.001Z" stroke="#16A34A" stroke-width="1.5"/>
<path d="M7.5079 18.001C8.4579 17.101 9.2579 16.601 11.0329 16.501M19.5079 11.501C19.5079 10.701 19.5329 8.25099 19.4079 7.25099C19.3329 6.42599 19.1079 5.30099 18.0829 4.65099C17.4579 4.32599 16.8579 4.02599 13.9829 4.00099M7.9579 4.00099C5.8079 4.00099 4.1329 4.17599 3.3079 5.20099C2.6079 6.15799 2.6489 7.25099 2.5829 7.60099C2.4329 9.47599 2.5329 16.026 2.5329 17.126C2.5329 18.276 2.4579 20.613 4.0329 21.401C5.3829 22.076 6.7829 21.976 11.5329 22.001M10.8579 2.00099C10.2579 2.00099 9.7579 2.00099 9.2579 2.52599C8.8329 2.92599 8.8979 3.27899 8.7329 3.90099C8.4989 4.77599 8.3829 5.23799 8.7079 5.60099C9.0059 5.99099 9.5069 5.99299 9.9499 5.99399H9.9579C10.3829 6.02399 11.8109 6.00999 12.2329 5.99399C12.6849 5.97599 13.0499 5.95099 13.3579 5.55099C13.6329 5.19399 13.4699 4.59899 13.3079 3.97599C13.1479 3.36199 13.2079 3.05099 12.7829 2.52599C12.1829 1.92599 11.4579 2.00099 10.8579 2.00099Z" stroke="#16A34A" stroke-width="1.5" stroke-linecap="round"/>
</svg>
