<svg width="24" height="24" viewBox="0 0 24 24" fill="none" xmlns="http://www.w3.org/2000/svg">
<path d="M9.71297 3.64001C10.294 3.14501 10.585 2.89701 10.889 2.75201C11.2359 2.58646 11.6155 2.50055 12 2.50055C12.3844 2.50055 12.764 2.58646 13.111 2.75201C13.415 2.89701 13.706 3.14501 14.287 3.64001C14.886 4.15001 15.494 4.40801 16.294 4.47101C17.055 4.53201 17.436 4.56301 17.754 4.67501C18.488 4.93501 19.066 5.51201 19.325 6.24701C19.437 6.56401 19.468 6.94501 19.529 7.70701C19.592 8.50701 19.849 9.11401 20.359 9.71301C20.855 10.294 21.103 10.585 21.248 10.889C21.584 11.592 21.584 12.409 21.248 13.111C21.103 13.415 20.855 13.706 20.36 14.287C19.8644 14.8431 19.5715 15.5504 19.529 16.294C19.468 17.055 19.437 17.436 19.325 17.754C19.1966 18.1165 18.9888 18.4456 18.7168 18.7175C18.4448 18.9893 18.1155 19.1969 17.753 19.325C17.436 19.437 17.055 19.468 16.293 19.529C15.493 19.592 14.886 19.849 14.287 20.359C13.706 20.855 13.415 21.103 13.111 21.248C12.764 21.4136 12.3844 21.4995 12 21.4995C11.6155 21.4995 11.2359 21.4136 10.889 21.248C10.585 21.103 10.294 20.855 9.71297 20.36C9.15692 19.8645 8.44957 19.5716 7.70596 19.529C6.94496 19.468 6.56396 19.437 6.24596 19.325C5.88351 19.1966 5.55434 18.9888 5.28252 18.7168C5.01071 18.4449 4.80313 18.1156 4.67496 17.753C4.56296 17.436 4.53196 17.055 4.47096 16.293C4.42845 15.5499 4.13595 14.8429 3.64096 14.287C3.14496 13.706 2.89696 13.415 2.75096 13.111C2.58557 12.764 2.49983 12.3843 2.5 11.9999C2.50017 11.6155 2.58626 11.2359 2.75196 10.889C2.89696 10.585 3.14496 10.294 3.63996 9.71301C4.15996 9.10201 4.40896 8.49001 4.47096 7.70601C4.53196 6.94501 4.56296 6.56401 4.67496 6.24601C4.80336 5.88356 5.01115 5.55438 5.28314 5.28257C5.55512 5.01076 5.88443 4.80318 6.24696 4.67501C6.56396 4.56301 6.94496 4.53201 7.70696 4.47101C8.4501 4.4285 9.15704 4.135 9.71297 3.64001Z" stroke="#1961FF" stroke-width="1.5" stroke-linecap="round" stroke-linejoin="round"/>
<path d="M9 7.5H15M9 10.278H15M13.25 17.5L9 13.056H10.5C13.834 13.056 13.834 7.5 10.5 7.5" stroke="#1961FF" stroke-width="1.5" stroke-linecap="round" stroke-linejoin="round"/>
</svg>
