<svg width="24" height="24" viewBox="0 0 24 24" fill="none" xmlns="http://www.w3.org/2000/svg">
<path fill-rule="evenodd" clip-rule="evenodd" d="M4.68293 2C3.97137 2 3.28896 2.28266 2.78581 2.78581C2.28266 3.28896 2 3.97137 2 4.68293C2 5.39448 2.28266 6.0769 2.78581 6.58004C3.28896 7.08319 3.97137 7.36585 4.68293 7.36585C5.39448 7.36585 6.0769 7.08319 6.58004 6.58004C7.08319 6.0769 7.36585 5.39448 7.36585 4.68293C7.36585 3.97137 7.08319 3.28896 6.58004 2.78581C6.0769 2.28266 5.39448 2 4.68293 2ZM3.46341 4.68293C3.46341 4.35949 3.5919 4.0493 3.8206 3.8206C4.0493 3.5919 4.35949 3.46341 4.68293 3.46341C5.00636 3.46341 5.31655 3.5919 5.54525 3.8206C5.77396 4.0493 5.90244 4.35949 5.90244 4.68293C5.90244 5.00636 5.77396 5.31655 5.54525 5.54525C5.31655 5.77396 5.00636 5.90244 4.68293 5.90244C4.35949 5.90244 4.0493 5.77396 3.8206 5.54525C3.5919 5.31655 3.46341 5.00636 3.46341 4.68293ZM2 8.58537C2 8.39131 2.07709 8.20519 2.21431 8.06797C2.35153 7.93075 2.53765 7.85366 2.73171 7.85366H6.63415C6.82821 7.85366 7.01432 7.93075 7.15154 8.06797C7.28876 8.20519 7.36585 8.39131 7.36585 8.58537V21.2683C7.36585 21.4624 7.28876 21.6485 7.15154 21.7857C7.01432 21.9229 6.82821 22 6.63415 22H2.73171C2.53765 22 2.35153 21.9229 2.21431 21.7857C2.07709 21.6485 2 21.4624 2 21.2683V8.58537ZM3.46341 9.31707V20.5366H5.90244V9.31707H3.46341ZM8.82927 8.58537C8.82927 8.39131 8.90636 8.20519 9.04358 8.06797C9.1808 7.93075 9.36691 7.85366 9.56098 7.85366H13.4634C13.6575 7.85366 13.8436 7.93075 13.9808 8.06797C14.118 8.20519 14.1951 8.39131 14.1951 8.58537V9.00878L14.6195 8.82634C15.3513 8.51376 16.1275 8.31788 16.92 8.24585C19.6273 8 22 10.1268 22 12.8585V21.2683C22 21.4624 21.9229 21.6485 21.7857 21.7857C21.6485 21.9229 21.4624 22 21.2683 22H17.3659C17.1718 22 16.9857 21.9229 16.8485 21.7857C16.7112 21.6485 16.6341 21.4624 16.6341 21.2683V14.439C16.6341 14.1156 16.5057 13.8054 16.277 13.5767C16.0483 13.348 15.7381 13.2195 15.4146 13.2195C15.0912 13.2195 14.781 13.348 14.5523 13.5767C14.3236 13.8054 14.1951 14.1156 14.1951 14.439V21.2683C14.1951 21.4624 14.118 21.6485 13.9808 21.7857C13.8436 21.9229 13.6575 22 13.4634 22H9.56098C9.36691 22 9.1808 21.9229 9.04358 21.7857C8.90636 21.6485 8.82927 21.4624 8.82927 21.2683V8.58537ZM10.2927 9.31707V20.5366H12.7317V14.439C12.7317 13.7275 13.0144 13.0451 13.5175 12.5419C14.0207 12.0388 14.7031 11.7561 15.4146 11.7561C16.1262 11.7561 16.8086 12.0388 17.3118 12.5419C17.8149 13.0451 18.0976 13.7275 18.0976 14.439V20.5366H20.5366V12.8585C20.5366 11.001 18.9161 9.53366 17.0537 9.70341C16.4138 9.76147 15.787 9.91948 15.1961 10.1717L13.7522 10.7912C13.6408 10.8391 13.5193 10.8585 13.3986 10.8477C13.2779 10.837 13.1617 10.7964 13.0605 10.7297C12.9593 10.663 12.8763 10.5721 12.8189 10.4654C12.7615 10.3586 12.7316 10.2393 12.7317 10.118V9.31707H10.2927Z" fill="#DCEDF8"/>
</svg>
