<svg width="34" height="33" viewBox="0 0 34 33" fill="none" xmlns="http://www.w3.org/2000/svg">
<path d="M10.5925 0.36973C10.9526 -0.131851 11.9436 0.0143049 12.5271 0.0376987C14.1982 0.104609 15.976 -0.0616897 17.6345 0.0425816C18.0825 0.0677201 18.5266 0.142264 18.9587 0.263285C20.4199 0.677794 21.6568 1.65642 22.3952 2.98399C23.0527 4.18592 23.2775 8.1452 23.28 9.78379C24.1642 9.87948 25.0562 9.91537 25.9538 9.92832L28.2087 9.94102L33.6403 9.95176C33.6985 10.1845 33.699 10.6503 33.7087 10.857C33.7937 11.7476 33.7232 12.6975 33.7233 13.5934C33.7235 14.8138 33.7931 16.0843 33.6882 17.2975C33.5509 18.8834 32.8173 20.3555 31.5847 21.3795C29.9987 22.6968 28.2425 22.663 26.3073 22.6607L23.1521 22.6539C23.154 23.791 23.2789 31.8028 23.0446 32.3746C22.6753 32.6469 21.823 32.5845 21.3649 32.5826C20.192 32.5735 19.0134 32.5571 17.8405 32.5689C16.1207 32.5864 14.5836 32.6301 13.0808 31.6324C11.1888 30.4036 10.5495 29.1005 10.5495 25.943C10.5495 25.5739 10.5734 24.3096 10.6081 23.2652C10.5947 23.2387 10.5804 23.2119 10.5671 23.1842C10.0178 23.2074 9.55195 23.0361 9.20967 22.7428C9.18752 22.7513 9.16335 22.7565 9.1374 22.7564C8.2686 22.7539 0.642956 22.6979 0.116896 22.6979C0.0587679 22.3486 0.0719716 21.6506 0.0719738 21.1529C0.174501 18.0423 -0.720958 14.1079 1.82686 11.6266C3.62643 9.8739 5.28415 9.92988 7.50557 9.93418L10.5329 9.942C10.5757 7.35386 10.518 4.752 10.5427 2.1627C10.5483 1.57626 10.5094 0.948715 10.5925 0.36973ZM24.5593 18.7564C23.9855 19.25 23.308 19.2862 22.5866 19.232C22.26 21.0564 21.2689 21.2785 19.6257 21.0201C19.4518 22.8068 18.6174 23.3348 16.8855 23.2086C15.7339 26.3266 13.7561 25.9656 12.8591 24.4752C12.7009 24.2128 12.2117 24.5445 11.6355 24.3434C11.6752 25.378 11.6598 26.4635 11.6794 27.0533C11.6903 27.2281 11.6992 27.3581 11.7077 27.4273C11.8147 29.3914 13.2386 30.8059 15.03 31.3023C16.0731 31.5873 20.6576 31.4622 22.0505 31.4674L22.031 25.4439C22.0268 24.39 22.0324 23.3396 22.0339 22.2828C22.0354 21.2303 23.5606 21.568 24.3386 21.5533C27.7414 21.489 30.3741 22.2641 32.2575 18.7389C31.6692 18.7423 26.1431 18.7142 24.6735 18.6481C24.6363 18.685 24.599 18.7223 24.5593 18.7564ZM14.9284 22.3014C14.29 22.8571 13.0751 24.3886 14.7438 24.4684C15.4052 23.9187 16.6296 22.3656 14.9284 22.3014ZM12.9362 20.8141C12.2916 21.3402 10.6309 23.2732 12.5231 23.3268C13.1516 22.9245 14.7747 20.8305 12.9362 20.8141ZM10.6638 19.6861C10.0983 20.2299 8.35609 22.2294 10.3864 22.0689C11.0464 21.5372 12.6258 19.5421 10.6638 19.6861ZM18.5534 1.31211C17.5367 1.04883 13.0151 1.14783 11.6374 1.1461L11.6433 7.06504C11.6471 8.17692 11.6643 9.29136 11.6296 10.402C11.6003 11.3372 10.1151 11.08 9.44014 11.0738L6.41279 11.0582C4.85851 11.0622 3.7502 11.2997 2.58272 12.4342C0.830157 14.1373 1.1928 15.2216 1.20576 17.5445C4.16297 17.4561 7.21108 17.2322 9.65108 19.232C10.7084 18.1773 11.7408 18.1317 12.7731 19.7711C14.0346 19.6097 14.5065 20.1683 14.9548 21.2242C15.8235 21.0725 16.1493 21.3991 16.6911 21.9879C19.1863 22.4177 18.1547 21.218 18.5026 19.9059C18.6851 19.2183 20.3871 20.2663 20.9606 20.0182C21.8039 19.6529 21.1795 18.7854 21.5212 18.1773C21.8949 17.8624 22.5402 18.0825 23.0358 18.1109C23.5404 18.2325 24.3117 17.8675 24.1599 17.2184C23.8911 16.0705 21.2875 15.5179 20.3513 14.9508C19.885 14.6684 17.002 13.4087 16.8151 13.5006C15.8542 13.9734 14.8049 15.5504 13.9694 16.3043C13.0521 17.2282 11.7529 17.5942 10.7087 16.6295C10.3337 16.2785 10.1229 15.7867 10.1276 15.2731C10.1273 14.4965 10.7338 13.6326 11.2009 13.0377C13.8255 9.69489 14.3194 6.59531 19.361 8.79844C20.2292 9.17788 21.1104 9.42839 22.0007 9.59629C22.0572 8.01442 21.8257 3.6819 20.6657 2.5211C20.081 1.93832 19.352 1.52128 18.5534 1.31211ZM9.00068 20.0445C7.00908 18.0534 1.25524 18.5403 1.20576 18.5445V21.5709C2.80759 21.572 7.22795 21.5516 8.59346 21.5455C8.54507 21.0714 8.66634 20.5461 9.00068 20.0445ZM16.8483 9.23203C16.2761 9.14288 15.638 9.21497 15.1667 9.57676C14.7722 9.87964 11.8609 13.914 11.4812 14.5602C11.3665 14.7552 11.2525 14.9828 11.2312 15.2106C11.2098 15.4419 11.3342 15.7193 11.4909 15.8854C11.622 16.0242 11.7997 16.0842 11.988 16.0836C13.1513 16.0794 14.6639 13.8447 15.5105 13.068C15.7911 12.8103 16.4208 12.275 16.8259 12.3092C17.632 12.3781 24.2091 15.3749 24.7155 15.94C25.0766 16.344 25.3079 16.8847 25.2663 17.4322C25.2612 17.4991 25.2518 17.5652 25.239 17.6305C27.2964 17.6296 31.0473 17.6985 32.57 17.6627C32.691 15.8295 32.6195 12.951 32.5817 11.0689H26.6589C26.1313 11.0697 24.6354 11.0946 23.9235 11.0377L23.6716 11.0074C21.4646 10.9839 19.0058 9.56805 16.8483 9.23203Z" fill="url(#paint0_linear_54_7966)"/>
<defs>
<linearGradient id="paint0_linear_54_7966" x1="26.4856" y1="30.973" x2="19.3551" y2="11.7357" gradientUnits="userSpaceOnUse">
<stop stop-color="#55B685"/>
<stop offset="1" stop-color="#39A4EC"/>
</linearGradient>
</defs>
</svg>
